# xmcd
#
# Track frame offsets:
#	150
#	10247
#	25080
#	33157
#	42475
#	55935
#	69730
#	78555
#	89002
#	97095
#	109265
#	122022
#	138897
#	151152
#
# Disc length: 2183 seconds
#
# Revision: 1
# Processed by: cddbd v1.4PL0 Copyright (c) Steve Scherf et al.
# Submitted via: CDmax 2.0
#
DISCID=b708850e
DTITLE=Willie Nelson - On The Road Again CD3
DYEAR=1900
DGENRE=Country
TTITLE0=Healing Hands Of Time
TTITLE1=And So Will You My Love
TTITLE2=Things To Remember
TTITLE3=On Step Beyond
TTITLE4=Undo The Right (Nelson/Coronach)
TTITLE5=Home Is Where You're Happy
TTITLE6=Why Are You Picking On Me
TTITLE7=I Feel Sorry For Him
TTITLE8=You Wouldn't Cross The Street To Say Goodbye
TTITLE9=I Can't Find The Time (Nelson/Coronach)
TTITLE10=Any Old Arms Won't Do
TTITLE11=I Let My Mind Wander
TTITLE12=Shelter Of My Arms
TTITLE13=I Just Don't Understand
EXTD=
EXTT0=
EXTT1=
EXTT2=
EXTT3=
EXTT4=
EXTT5=
EXTT6=
EXTT7=
EXTT8=
EXTT9=
EXTT10=
EXTT11=
EXTT12=
EXTT13=
PLAYORDER=
